REM DIRINDEX 1\2\4,1\2\5,1\3\6,1\3\7,1\3\8
REM DIRNAME folder01,folder02,folder03,folder04,folder05,folder06,folder07,folder08
TITLE ""
FILE "LV6_106_WORDS.mp3" MP3
  TRACK 01 AUDIO
    TITLE "0:"
    INDEX 01 00:00:00
  TRACK 02 AUDIO
    TITLE "6:cjc094_3609"
    INDEX 01 00:00:05
  TRACK 03 AUDIO
    TITLE "0:"
    INDEX 01 00:02:08
  TRACK 04 AUDIO
    TITLE "7:cjc094_3610"
    INDEX 01 00:02:63
  TRACK 05 AUDIO
    TITLE "0:"
    INDEX 01 00:03:66
  TRACK 06 AUDIO
    TITLE "8:cjc094_3611"
    INDEX 01 00:04:07
  TRACK 07 AUDIO
    TITLE "0:"
    INDEX 01 00:06:59
  TRACK 08 AUDIO
    TITLE "7:cjc094_3612"
    INDEX 01 00:07:35
  TRACK 09 AUDIO
    TITLE "0:"
    INDEX 01 00:08:32
  TRACK 10 AUDIO
    TITLE "8:cjc094_3613"
    INDEX 01 00:08:46
  TRACK 11 AUDIO
    TITLE "0:"
    INDEX 01 00:10:12
  TRACK 12 AUDIO
    TITLE "7:cjc094_3614"
    INDEX 01 00:10:55
  TRACK 13 AUDIO
    TITLE "0:"
    INDEX 01 00:11:60
  TRACK 14 AUDIO
    TITLE "8:cjc094_3615"
    INDEX 01 00:12:05
  TRACK 15 AUDIO
    TITLE "0:"
    INDEX 01 00:14:47
  TRACK 16 AUDIO
    TITLE "7:cjc094_3616"
    INDEX 01 00:15:17
  TRACK 17 AUDIO
    TITLE "0:"
    INDEX 01 00:16:14
  TRACK 18 AUDIO
    TITLE "8:cjc094_3617"
    INDEX 01 00:16:38
  TRACK 19 AUDIO
    TITLE "0:"
    INDEX 01 00:18:17
  TRACK 20 AUDIO
    TITLE "7:cjc094_3618"
    INDEX 01 00:18:64
  TRACK 21 AUDIO
    TITLE "0:"
    INDEX 01 00:19:63
  TRACK 22 AUDIO
    TITLE "8:cjc094_3619"
    INDEX 01 00:20:00
  TRACK 23 AUDIO
    TITLE "0:"
    INDEX 01 00:21:00
  TRACK 24 AUDIO
    TITLE "7:cjc094_3620"
    INDEX 01 00:21:49
  TRACK 25 AUDIO
    TITLE "0:"
    INDEX 01 00:22:50
  TRACK 26 AUDIO
    TITLE "8:cjc094_3621"
    INDEX 01 00:22:70
  TRACK 27 AUDIO
    TITLE "0:"
    INDEX 01 00:24:39
  TRACK 28 AUDIO
    TITLE "7:cjc094_3622"
    INDEX 01 00:25:15
  TRACK 29 AUDIO
    TITLE "0:"
    INDEX 01 00:26:17
  TRACK 30 AUDIO
    TITLE "8:cjc094_3623"
    INDEX 01 00:26:34
  TRACK 31 AUDIO
    TITLE "0:"
    INDEX 01 00:27:39
  TRACK 32 AUDIO
    TITLE "7:cjc094_3624"
    INDEX 01 00:28:12
  TRACK 33 AUDIO
    TITLE "0:"
    INDEX 01 00:29:15
  TRACK 34 AUDIO
    TITLE "8:cjc094_3625"
    INDEX 01 00:29:33
  TRACK 35 AUDIO
    TITLE "0:"
    INDEX 01 00:30:26
  TRACK 36 AUDIO
    TITLE "7:cjc094_3626"
    INDEX 01 00:31:04
  TRACK 37 AUDIO
    TITLE "0:"
    INDEX 01 00:32:09
  TRACK 38 AUDIO
    TITLE "8:cjc094_3627"
    INDEX 01 00:32:25
  TRACK 39 AUDIO
    TITLE "0:"
    INDEX 01 00:35:21
  TRACK 40 AUDIO
    TITLE "7:cjc094_3628"
    INDEX 01 00:35:70
  TRACK 41 AUDIO
    TITLE "0:"
    INDEX 01 00:37:18
  TRACK 42 AUDIO
    TITLE "8:cjc094_3629"
    INDEX 01 00:37:34
  TRACK 43 AUDIO
    TITLE "0:"
    INDEX 01 00:39:58
  TRACK 44 AUDIO
    TITLE "7:cjc094_3630"
    INDEX 01 00:40:26
  TRACK 45 AUDIO
    TITLE "0:"
    INDEX 01 00:41:30
  TRACK 46 AUDIO
    TITLE "8:cjc094_3631"
    INDEX 01 00:41:42
  TRACK 47 AUDIO
    TITLE "0:"
    INDEX 01 00:42:45
  TRACK 48 AUDIO
    TITLE "7:cjc094_3632"
    INDEX 01 00:43:17
  TRACK 49 AUDIO
    TITLE "0:"
    INDEX 01 00:44:26
  TRACK 50 AUDIO
    TITLE "8:cjc094_3633"
    INDEX 01 00:44:42
  TRACK 51 AUDIO
    TITLE "0:"
    INDEX 01 00:45:53
  TRACK 52 AUDIO
    TITLE "7:cjc094_3634"
    INDEX 01 00:46:25
  TRACK 53 AUDIO
    TITLE "0:"
    INDEX 01 00:47:42
  TRACK 54 AUDIO
    TITLE "8:cjc094_3635"
    INDEX 01 00:47:56
  TRACK 55 AUDIO
    TITLE "0:"
    INDEX 01 00:48:59
  TRACK 56 AUDIO
    TITLE "7:cjc094_3636"
    INDEX 01 00:49:31
  TRACK 57 AUDIO
    TITLE "0:"
    INDEX 01 00:50:35
  TRACK 58 AUDIO
    TITLE "8:cjc094_3637"
    INDEX 01 00:50:56
  TRACK 59 AUDIO
    TITLE "0:"
    INDEX 01 00:52:02
  TRACK 60 AUDIO
    TITLE "7:cjc094_3638"
    INDEX 01 00:52:53
  TRACK 61 AUDIO
    TITLE "0:"
    INDEX 01 00:53:51
  TRACK 62 AUDIO
    TITLE "8:cjc094_3639"
    INDEX 01 00:53:68
  TRACK 63 AUDIO
    TITLE "0:"
    INDEX 01 00:54:74
  TRACK 64 AUDIO
    TITLE "7:cjc094_3640"
    INDEX 01 00:55:48
  TRACK 65 AUDIO
    TITLE "0:"
    INDEX 01 00:56:47
  TRACK 66 AUDIO
    TITLE "8:cjc094_3641"
    INDEX 01 00:56:65
  TRACK 67 AUDIO
    TITLE "0:"
    INDEX 01 00:58:05
  TRACK 68 AUDIO
    TITLE "7:cjc094_3642"
    INDEX 01 00:58:52
  TRACK 69 AUDIO
    TITLE "0:"
    INDEX 01 01:00:08
  TRACK 70 AUDIO
    TITLE "8:cjc094_3643"
    INDEX 01 01:00:27
  TRACK 71 AUDIO
    TITLE "0:"
    INDEX 01 01:03:29
